  0
SECTION
  2
HEADER
  9
$ACADVER
  1
AC1015
  9
$ACADMAINTVER
 70
    20
  9
$DWGCODEPAGE
  3
ANSI_1252
  9
$INSBASE
 10
0.0
 20
0.0
 30
0.0
  9
$EXTMIN
 10
0.0
 20
0.0
 30
0.0
  9
$EXTMAX
 10
350.0
 20
199.8990827291587
 30
0.0
  9
$LIMMIN
 10
0.0
 20
0.0
  9
$LIMMAX
 10
420.0
 20
297.0
  9
$ORTHOMODE
 70
     0
  9
$REGENMODE
 70
     1
  9
$FILLMODE
 70
     1
  9
$QTEXTMODE
 70
     0
  9
$MIRRTEXT
 70
     0
  9
$LTSCALE
 40
1.0
  9
$ATTMODE
 70
     1
  9
$TEXTSIZE
 40
2.5
  9
$TRACEWID
 40
1.0
  9
$TEXTSTYLE
  7
Standard
  9
$CLAYER
  8
0
  9
$CELTYPE
  6
ByLayer
  9
$CECOLOR
 62
   256
  9
$CELTSCALE
 40
1.0
  9
$DISPSILH
 70
     0
  9
$DIMSCALE
 40
1.0
  9
$DIMASZ
 40
2.5
  9
$DIMEXO
 40
0.625
  9
$DIMDLI
 40
3.75
  9
$DIMRND
 40
0.0
  9
$DIMDLE
 40
0.0
  9
$DIMEXE
 40
1.25
  9
$DIMTP
 40
0.0
  9
$DIMTM
 40
0.0
  9
$DIMTXT
 40
2.5
  9
$DIMCEN
 40
2.5
  9
$DIMTSZ
 40
0.0
  9
$DIMTOL
 70
     0
  9
$DIMLIM
 70
     0
  9
$DIMTIH
 70
     0
  9
$DIMTOH
 70
     0
  9
$DIMSE1
 70
     0
  9
$DIMSE2
 70
     0
  9
$DIMTAD
 70
     1
  9
$DIMZIN
 70
     8
  9
$DIMBLK
  1

  9
$DIMASO
 70
     1
  9
$DIMSHO
 70
     1
  9
$DIMPOST
  1

  9
$DIMAPOST
  1

  9
$DIMALT
 70
     0
  9
$DIMALTD
 70
     3
  9
$DIMALTF
 40
0.03937007874016
  9
$DIMLFAC
 40
1.0
  9
$DIMTOFL
 70
     1
  9
$DIMTVP
 40
0.0
  9
$DIMTIX
 70
     0
  9
$DIMSOXD
 70
     0
  9
$DIMSAH
 70
     0
  9
$DIMBLK1
  1

  9
$DIMBLK2
  1

  9
$DIMSTYLE
  2
ISO-25
  9
$DIMCLRD
 70
     0
  9
$DIMCLRE
 70
     0
  9
$DIMCLRT
 70
     0
  9
$DIMTFAC
 40
1.0
  9
$DIMGAP
 40
0.625
  9
$DIMJUST
 70
     0
  9
$DIMSD1
 70
     0
  9
$DIMSD2
 70
     0
  9
$DIMTOLJ
 70
     0
  9
$DIMTZIN
 70
     8
  9
$DIMALTZ
 70
     0
  9
$DIMALTTZ
 70
     0
  9
$DIMUPT
 70
     0
  9
$DIMDEC
 70
     2
  9
$DIMTDEC
 70
     2
  9
$DIMALTU
 70
     2
  9
$DIMALTTD
 70
     3
  9
$DIMTXSTY
  7
Standard
  9
$DIMAUNIT
 70
     0
  9
$DIMADEC
 70
     0
  9
$DIMALTRND
 40
0.0
  9
$DIMAZIN
 70
     0
  9
$DIMDSEP
 70
    44
  9
$DIMATFIT
 70
     3
  9
$DIMFRAC
 70
     0
  9
$DIMLDRBLK
  1

  9
$DIMLUNIT
 70
     2
  9
$DIMLWD
 70
    -2
  9
$DIMLWE
 70
    -2
  9
$DIMTMOVE
 70
     0
  9
$LUNITS
 70
     2
  9
$LUPREC
 70
     4
  9
$SKETCHINC
 40
1.0
  9
$FILLETRAD
 40
0.0
  9
$AUNITS
 70
     0
  9
$AUPREC
 70
     0
  9
$MENU
  1
.
  9
$ELEVATION
 40
0.0
  9
$PELEVATION
 40
0.0
  9
$THICKNESS
 40
0.0
  9
$LIMCHECK
 70
     0
  9
$CHAMFERA
 40
0.0
  9
$CHAMFERB
 40
0.0
  9
$CHAMFERC
 40
0.0
  9
$CHAMFERD
 40
0.0
  9
$SKPOLY
 70
     0
  9
$TDCREATE
 40
2454484.687558403
  9
$TDUCREATE
 40
2454484.895891737
  9
$TDUPDATE
 40
2454484.688800810
  9
$TDUUPDATE
 40
2454484.897134143
  9
$TDINDWG
 40
0.0007282639
  9
$TDUSRTIMER
 40
0.0007280903
  9
$USRTIMER
 70
     1
  9
$ANGBASE
 50
0.0
  9
$ANGDIR
 70
     0
  9
$PDMODE
 70
     0
  9
$PDSIZE
 40
0.0
  9
$PLINEWID
 40
0.0
  9
$SPLFRAME
 70
     0
  9
$SPLINETYPE
 70
     6
  9
$SPLINESEGS
 70
     8
  9
$HANDSEED
  5
     423
  9
$SURFTAB1
 70
     6
  9
$SURFTAB2
 70
     6
  9
$SURFTYPE
 70
     6
  9
$SURFU
 70
     6
  9
$SURFV
 70
     6
  9
$UCSBASE
  2

  9
$UCSNAME
  2

  9
$UCSORG
 10
0.0
 20
0.0
 30
0.0
  9
$UCSXDIR
 10
1.0
 20
0.0
 30
0.0
  9
$UCSYDIR
 10
0.0
 20
1.0
 30
0.0
  9
$UCSORTHOREF
  2

  9
$UCSORTHOVIEW
 70
     0
  9
$UCSORGTOP
 10
0.0
 20
0.0
 30
0.0
  9
$UCSORGBOTTOM
 10
0.0
 20
0.0
 30
0.0
  9
$UCSORGLEFT
 10
0.0
 20
0.0
 30
0.0
  9
$UCSORGRIGHT
 10
0.0
 20
0.0
 30
0.0
  9
$UCSORGFRONT
 10
0.0
 20
0.0
 30
0.0
  9
$UCSORGBACK
 10
0.0
 20
0.0
 30
0.0
  9
$PUCSBASE
  2

  9
$PUCSNAME
  2

  9
$PUCSORG
 10
0.0
 20
0.0
 30
0.0
  9
$PUCSXDIR
 10
1.0
 20
0.0
 30
0.0
  9
$PUCSYDIR
 10
0.0
 20
1.0
 30
0.0
  9
$PUCSORTHOREF
  2

  9
$PUCSORTHOVIEW
 70
     0
  9
$PUCSORGTOP
 10
0.0
 20
0.0
 30
0.0
  9
$PUCSORGBOTTOM
 10
0.0
 20
0.0
 30
0.0
  9
$PUCSORGLEFT
 10
0.0
 20
0.0
 30
0.0
  9
$PUCSORGRIGHT
 10
0.0
 20
0.0
 30
0.0
  9
$PUCSORGFRONT
 10
0.0
 20
0.0
 30
0.0
  9
$PUCSORGBACK
 10
0.0
 20
0.0
 30
0.0
  9
$USERI1
 70
     0
  9
$USERI2
 70
     0
  9
$USERI3
 70
     0
  9
$USERI4
 70
     0
  9
$USERI5
 70
     0
  9
$USERR1
 40
0.0
  9
$USERR2
 40
0.0
  9
$USERR3
 40
0.0
  9
$USERR4
 40
0.0
  9
$USERR5
 40
0.0
  9
$WORLDVIEW
 70
     1
  9
$SHADEDGE
 70
     3
  9
$SHADEDIF
 70
    70
  9
$TILEMODE
 70
     1
  9
$MAXACTVP
 70
    64
  9
$PINSBASE
 10
0.0
 20
0.0
 30
0.0
  9
$PLIMCHECK
 70
     0
  9
$PEXTMIN
 10
1.000000000000000E+20
 20
1.000000000000000E+20
 30
1.000000000000000E+20
  9
$PEXTMAX
 10
-1.000000000000000E+20
 20
-1.000000000000000E+20
 30
-1.000000000000000E+20
  9
$PLIMMIN
 10
0.0
 20
0.0
  9
$PLIMMAX
 10
420.0
 20
297.0
  9
$UNITMODE
 70
     0
  9
$VISRETAIN
 70
     1
  9
$PLINEGEN
 70
     0
  9
$PSLTSCALE
 70
     1
  9
$TREEDEPTH
 70
  3020
  9
$CMLSTYLE
  2
Standard
  9
$CMLJUST
 70
     0
  9
$CMLSCALE
 40
20.0
  9
$PROXYGRAPHICS
 70
     1
  9
$MEASUREMENT
 70
     1
  9
$CELWEIGHT
370
    -1
  9
$ENDCAPS
280
     0
  9
$JOINSTYLE
280
     0
  9
$LWDISPLAY
290
     0
  9
$INSUNITS
 70
     4
  9
$HYPERLINKBASE
  1

  9
$STYLESHEET
  1

  9
$XEDIT
290
     1
  9
$CEPSNTYPE
380
     0
  9
$PSTYLEMODE
290
     1
  9
$FINGERPRINTGUID
  2
{90AA9CF6-175C-4CFB-A23B-75340C5C0B55}
  9
$VERSIONGUID
  2
{C0FC9615-CA51-4B2E-8E4F-CCDB28DF7CC6}
  9
$EXTNAMES
290
     1
  9
$PSVPSCALE
 40
0.0
  9
$OLESTARTUP
290
     0
  0
ENDSEC
  0
SECTION
  2
CLASSES
  0
CLASS
  1
ACDBDICTIONARYWDFLT
  2
AcDbDictionaryWithDefault
  3
ObjectDBX Classes
 90
        0
280
     0
281
     0
  0
CLASS
  1
SCALE
  2
AcDbScale
  3
ObjectDBX Classes
 90
     1153
280
     0
281
     0
  0
CLASS
  1
TABLESTYLE
  2
AcDbTableStyle
  3
ObjectDBX Classes
 90
     4095
280
     0
281
     0
  0
CLASS
  1
DICTIONARYVAR
  2
AcDbDictionaryVar
  3
ObjectDBX Classes
 90
        0
280
     0
281
     0
  0
CLASS
  1
ACDBPLACEHOLDER
  2
AcDbPlaceHolder
  3
ObjectDBX Classes
 90
        0
280
     0
281
     0
  0
CLASS
  1
LAYOUT
  2
AcDbLayout
  3
ObjectDBX Classes
 90
        0
280
     0
281
     0
  0
ENDSEC
  0
SECTION
  2
TABLES
  0
TABLE
  2
VPORT
  5
8
330
0
100
AcDbSymbolTable
 70
     1
  0
VPORT
  5
5F
330
8
100
AcDbSymbolTableRecord
100
AcDbViewportTableRecord
  2
*Active
 70
     0
 10
0.0
 20
0.0
 11
1.0
 21
1.0
 12
259.997          
 22
344.664         
 13
0.0
 23
0.0
 14
10.0
 24
10.0
 15
10.0
 25
10.0
 16
0.0
 26
0.0
 36
1.0
 17
0.0
 27
0.0
 37
0.0
 40
724.958          
 41
1.662222222222222
 42
50.0
 43
0.0
 44
0.0
 50
0.0
 51
0.0
 71
     0
 72
  1000
 73
     1
 74
     3
 75
     0
 76
     0
 77
     0
 78
     0
281
     0
 65
     1
110
0.0
120
0.0
130
0.0
111
1.0
121
0.0
131
0.0
112
0.0
122
1.0
132
0.0
 79
     0
146
0.0
  0
ENDTAB
  0
TABLE
  2
LTYPE
  5
5
330
0
100
AcDbSymbolTable
 70
     2
  0
LTYPE
  5
63
330
5
100
AcDbSymbolTableRecord
100
AcDbLinetypeTableRecord
  2
ByBlock
 70
     0
  3

 72
    65
 73
     0
 40
0.0
  0
LTYPE
  5
64
330
5
100
AcDbSymbolTableRecord
100
AcDbLinetypeTableRecord
  2
ByLayer
 70
     0
  3

 72
    65
 73
     0
 40
0.0
  0
LTYPE
  5
65
330
5
100
AcDbSymbolTableRecord
100
AcDbLinetypeTableRecord
  2
Continuous
 70
     0
  3
Solid line
 72
    65
 73
     0
 40
0.0
  0
ENDTAB
  0
TABLE
  2
LAYER
  5
2
330
0
100
AcDbSymbolTable
 70
     1
  0
LAYER
  5
5C
102
{ACAD_XDICTIONARY
360
7F
102
}
330
2
100
AcDbSymbolTableRecord
100
AcDbLayerTableRecord
  2
0
 70
     0
 62
     7
  6
Continuous
370
    -3
390
F
  0
ENDTAB
  0
TABLE
  2
STYLE
  5
3
330
0
100
AcDbSymbolTable
 70
     2
  0
STYLE
  5
5D
330
3
100
AcDbSymbolTableRecord
100
AcDbTextStyleTableRecord
  2
Standard
 70
     0
 40
0.0
 41
1.0
 50
0.0
 71
     0
 42
2.5
  3
txt
  4

  0
STYLE
  5
62
330
3
100
AcDbSymbolTableRecord
100
AcDbTextStyleTableRecord
  2
Annotative
 70
     0
 40
0.0
 41
1.0
 50
0.0
 71
     0
 42
0.2
  3

  4

1001
AcadAnnotative
1000
AnnotativeData
1002
{
1070
     1
1070
     1
1002
}
  0
ENDTAB
  0
TABLE
  2
VIEW
  5
6
330
0
100
AcDbSymbolTable
 70
     0
  0
ENDTAB
  0
TABLE
  2
UCS
  5
7
330
0
100
AcDbSymbolTable
 70
     0
  0
ENDTAB
  0
TABLE
  2
APPID
  5
9
330
0
100
AcDbSymbolTable
 70
     5
  0
APPID
  5
5E
330
9
100
AcDbSymbolTableRecord
100
AcDbRegAppTableRecord
  2
ACAD
 70
     0
  0
APPID
  5
66
330
9
100
AcDbSymbolTableRecord
100
AcDbRegAppTableRecord
  2
AcadAnnotative
 70
     0
  0
APPID
  5
70
330
9
100
AcDbSymbolTableRecord
100
AcDbRegAppTableRecord
  2
ACAD_MLEADERVER
 70
     0
  0
APPID
  5
94
330
9
100
AcDbSymbolTableRecord
100
AcDbRegAppTableRecord
  2
ACAD_DSTYLE_DIMJOGGED_JOGANGLE_SYMBOL
 70
     0
  0
APPID
  5
A1
330
9
100
AcDbSymbolTableRecord
100
AcDbRegAppTableRecord
  2
ACAD_EXEMPT_FROM_CAD_STANDARDS
 70
     0
  0
ENDTAB
  0
TABLE
  2
DIMSTYLE
  5
A
330
0
100
AcDbSymbolTable
 70
     3
100
AcDbDimStyleTable
 71
     1
340
60
  0
DIMSTYLE
105
60
330
A
100
AcDbSymbolTableRecord
100
AcDbDimStyleTableRecord
  2
ISO-25
 70
     0
 41
2.5
 42
0.625
 43
3.75
 44
1.25
 73
     0
 74
     0
 77
     1
 78
     8
140
2.5
141
2.5
143
0.03937007874016
147
0.625
171
     3
172
     1
271
     2
272
     2
274
     3
278
    44
283
     0
284
     8
340
5D
1001
ACAD_DSTYLE_DIMJOGGED_JOGANGLE_SYMBOL
1070
   384
1040
1.570796326794896
  0
DIMSTYLE
105
61
330
A
100
AcDbSymbolTableRecord
100
AcDbDimStyleTableRecord
  2
Annotative
 70
     0
340
5D
1001
AcadAnnotative
1000
AnnotativeData
1002
{
1070
     1
1070
     1
1002
}
  0
ENDTAB
  0
TABLE
  2
BLOCK_RECORD
  5
1
330
0
100
AcDbSymbolTable
 70
     2
  0
BLOCK_RECORD
  5
75
330
1
100
AcDbSymbolTableRecord
100
AcDbBlockTableRecord
  2
*Model_Space
340
78
  0
BLOCK_RECORD
  5
71
330
1
100
AcDbSymbolTableRecord
100
AcDbBlockTableRecord
  2
*Paper_Space
340
74
  0
BLOCK_RECORD
  5
79
330
1
100
AcDbSymbolTableRecord
100
AcDbBlockTableRecord
  2
*Paper_Space0
340
7C
  0
ENDTAB
  0
ENDSEC
  0
SECTION
  2
BLOCKS
  0
BLOCK
  5
76
330
75
100
AcDbEntity
  8
0
100
AcDbBlockBegin
  2
*Model_Space
 70
     0
 10
0.0
 20
0.0
 30
0.0
  3
*Model_Space
  1

  0
ENDBLK
  5
77
330
75
100
AcDbEntity
  8
0
100
AcDbBlockEnd
  0
BLOCK
  5
72
330
71
100
AcDbEntity
 67
     1
  8
0
100
AcDbBlockBegin
  2
*Paper_Space
 70
     0
 10
0.0
 20
0.0
 30
0.0
  3
*Paper_Space
  1

  0
ENDBLK
  5
73
330
71
100
AcDbEntity
 67
     1
  8
0
100
AcDbBlockEnd
  0
BLOCK
  5
7A
330
79
100
AcDbEntity
 67
     1
  8
0
100
AcDbBlockBegin
  2
*Paper_Space0
 70
     0
 10
0.0
 20
0.0
 30
0.0
  3
*Paper_Space0
  1

  0
ENDBLK
  5
7B
330
79
100
AcDbEntity
 67
     1
  8
0
100
AcDbBlockEnd
  0
ENDSEC
  0
SECTION
  2
ENTITIES
  0
MTEXT
  5
101
 100
AcDbEntity
  8
T
 100
AcDbMText
 10
12.7
 20
674.8
 30
0.0
 40
3.1
 71
     1
  1
{\fArial|b0|i0|c0|p18;Produced by BoxMaker 1.5.3}
  0
MTEXT
  5
102
 100
AcDbEntity
  8
T
 100
AcDbMText
 10
13.9
 20
668.5
 30
0.0
 40
3.1
 71
     1
  1
{\fArial|b0|i0|c0|p18;on Sun Nov 17 23:16:17 PST 2013}
  0
MTEXT
  5
103
 100
AcDbEntity
  8
T
 100
AcDbMText
 10
12.7
 20
662.1
 30
0.0
 40
3.1
 71
     1
  1
{\fArial|b0|i0|c0|p18;http://boxmaker.rahulbotics.com/}
  0
MTEXT
  5
104
 100
AcDbEntity
  8
T
 100
AcDbMText
 10
12.7
 20
655.8
 30
0.0
 40
3.1
 71
     1
  1
{\fArial|b0|i0|c0|p18;Width (mm): 160.0}
  0
MTEXT
  5
105
 100
AcDbEntity
  8
T
 100
AcDbMText
 10
12.7
 20
649.4
 30
0.0
 40
3.1
 71
     1
  1
{\fArial|b0|i0|c0|p18;Height (mm): 160.0}
  0
MTEXT
  5
106
 100
AcDbEntity
  8
T
 100
AcDbMText
 10
12.7
 20
643.1
 30
0.0
 40
3.1
 71
     1
  1
{\fArial|b0|i0|c0|p18;Depth (mm): 160.0}
  0
MTEXT
  5
107
 100
AcDbEntity
  8
T
 100
AcDbMText
 10
12.7
 20
636.7
 30
0.0
 40
3.1
 71
     1
  1
{\fArial|b0|i0|c0|p18;Thickness (mm): 8.0}
  0
MTEXT
  5
108
 100
AcDbEntity
  8
T
 100
AcDbMText
 10
12.7
 20
630.4
 30
0.0
 40
3.1
 71
     1
  1
{\fArial|b0|i0|c0|p18;Notch Length (mm): 20.0}
  0
MTEXT
  5
109
 100
AcDbEntity
  8
T
 100
AcDbMText
 10
12.7
 20
624.0
 30
0.0
 40
3.1
 71
     1
  1
{\fArial|b0|i0|c0|p18;Cut Width (mm): 0.0}
  0
LWPOLYLINE
  5
110
 100
AcDbEntity
  8
P
 100
AcDbPolyline
 90
     2
 43
0.000
 10
179.987
 20
10.001
 10
202.847
 20
10.001
  0
LWPOLYLINE
  5
111
 100
AcDbEntity
  8
P
 100
AcDbPolyline
 90
     2
 43
0.000
 10
202.847
 20
18.009
 10
202.847
 20
10.001
  0
LWPOLYLINE
  5
112
 100
AcDbEntity
  8
P
 100
AcDbPolyline
 90
     2
 43
0.000
 10
202.847
 20
18.009
 10
225.707
 20
18.009
  0
LWPOLYLINE
  5
113
 100
AcDbEntity
  8
P
 100
AcDbPolyline
 90
     2
 43
0.000
 10
225.707
 20
18.009
 10
225.707
 20
10.001
  0
LWPOLYLINE
  5
114
 100
AcDbEntity
  8
P
 100
AcDbPolyline
 90
     2
 43
0.000
 10
225.707
 20
10.001
 10
248.567
 20
10.001
  0
LWPOLYLINE
  5
115
 100
AcDbEntity
  8
P
 100
AcDbPolyline
 90
     2
 43
0.000
 10
248.567
 20
18.009
 10
248.567
 20
10.001
  0
LWPOLYLINE
  5
116
 100
AcDbEntity
  8
P
 100
AcDbPolyline
 90
     2
 43
0.000
 10
248.567
 20
18.009
 10
271.427
 20
18.009
  0
LWPOLYLINE
  5
117
 100
AcDbEntity
  8
P
 100
AcDbPolyline
 90
     2
 43
0.000
 10
271.427
 20
18.009
 10
271.427
 20
10.001
  0
LWPOLYLINE
  5
118
 100
AcDbEntity
  8
P
 100
AcDbPolyline
 90
     2
 43
0.000
 10
271.427
 20
10.001
 10
294.287
 20
10.001
  0
LWPOLYLINE
  5
119
 100
AcDbEntity
  8
P
 100
AcDbPolyline
 90
     2
 43
0.000
 10
294.287
 20
18.009
 10
294.287
 20
10.001
  0
LWPOLYLINE
  5
120
 100
AcDbEntity
  8
P
 100
AcDbPolyline
 90
     2
 43
0.000
 10
294.287
 20
18.009
 10
317.130
 20
18.009
  0
LWPOLYLINE
  5
121
 100
AcDbEntity
  8
P
 100
AcDbPolyline
 90
     2
 43
0.000
 10
317.130
 20
18.009
 10
317.130
 20
10.001
  0
LWPOLYLINE
  5
122
 100
AcDbEntity
  8
P
 100
AcDbPolyline
 90
     2
 43
0.000
 10
317.130
 20
10.001
 10
331.982
 20
10.001
  0
LWPOLYLINE
  5
123
 100
AcDbEntity
  8
P
 100
AcDbPolyline
 90
     2
 43
0.000
 10
179.987
 20
170.004
 10
202.847
 20
170.004
  0
LWPOLYLINE
  5
124
 100
AcDbEntity
  8
P
 100
AcDbPolyline
 90
     2
 43
0.000
 10
202.847
 20
170.004
 10
202.847
 20
162.013
  0
LWPOLYLINE
  5
125
 100
AcDbEntity
  8
P
 100
AcDbPolyline
 90
     2
 43
0.000
 10
202.847
 20
162.013
 10
225.707
 20
162.013
  0
LWPOLYLINE
  5
126
 100
AcDbEntity
  8
P
 100
AcDbPolyline
 90
     2
 43
0.000
 10
225.707
 20
170.004
 10
225.707
 20
162.013
  0
LWPOLYLINE
  5
127
 100
AcDbEntity
  8
P
 100
AcDbPolyline
 90
     2
 43
0.000
 10
225.707
 20
170.004
 10
248.567
 20
170.004
  0
LWPOLYLINE
  5
128
 100
AcDbEntity
  8
P
 100
AcDbPolyline
 90
     2
 43
0.000
 10
248.567
 20
170.004
 10
248.567
 20
162.013
  0
LWPOLYLINE
  5
129
 100
AcDbEntity
  8
P
 100
AcDbPolyline
 90
     2
 43
0.000
 10
248.567
 20
162.013
 10
271.427
 20
162.013
  0
LWPOLYLINE
  5
130
 100
AcDbEntity
  8
P
 100
AcDbPolyline
 90
     2
 43
0.000
 10
271.427
 20
170.004
 10
271.427
 20
162.013
  0
LWPOLYLINE
  5
131
 100
AcDbEntity
  8
P
 100
AcDbPolyline
 90
     2
 43
0.000
 10
271.427
 20
170.004
 10
294.287
 20
170.004
  0
LWPOLYLINE
  5
132
 100
AcDbEntity
  8
P
 100
AcDbPolyline
 90
     2
 43
0.000
 10
294.287
 20
170.004
 10
294.287
 20
162.013
  0
LWPOLYLINE
  5
133
 100
AcDbEntity
  8
P
 100
AcDbPolyline
 90
     2
 43
0.000
 10
294.287
 20
162.013
 10
317.130
 20
162.013
  0
LWPOLYLINE
  5
134
 100
AcDbEntity
  8
P
 100
AcDbPolyline
 90
     2
 43
0.000
 10
317.130
 20
170.004
 10
317.130
 20
162.013
  0
LWPOLYLINE
  5
135
 100
AcDbEntity
  8
P
 100
AcDbPolyline
 90
     2
 43
0.000
 10
317.130
 20
170.004
 10
331.982
 20
170.004
  0
LWPOLYLINE
  5
136
 100
AcDbEntity
  8
P
 100
AcDbPolyline
 90
     2
 43
0.000
 10
179.987
 20
10.001
 10
179.987
 20
32.861
  0
LWPOLYLINE
  5
137
 100
AcDbEntity
  8
P
 100
AcDbPolyline
 90
     2
 43
0.000
 10
187.995
 20
32.861
 10
179.987
 20
32.861
  0
LWPOLYLINE
  5
138
 100
AcDbEntity
  8
P
 100
AcDbPolyline
 90
     2
 43
0.000
 10
187.995
 20
32.861
 10
187.995
 20
55.721
  0
LWPOLYLINE
  5
139
 100
AcDbEntity
  8
P
 100
AcDbPolyline
 90
     2
 43
0.000
 10
187.995
 20
55.721
 10
179.987
 20
55.721
  0
LWPOLYLINE
  5
140
 100
AcDbEntity
  8
P
 100
AcDbPolyline
 90
     2
 43
0.000
 10
179.987
 20
55.721
 10
179.987
 20
78.581
  0
LWPOLYLINE
  5
141
 100
AcDbEntity
  8
P
 100
AcDbPolyline
 90
     2
 43
0.000
 10
187.995
 20
78.581
 10
179.987
 20
78.581
  0
LWPOLYLINE
  5
142
 100
AcDbEntity
  8
P
 100
AcDbPolyline
 90
     2
 43
0.000
 10
187.995
 20
78.581
 10
187.995
 20
101.441
  0
LWPOLYLINE
  5
143
 100
AcDbEntity
  8
P
 100
AcDbPolyline
 90
     2
 43
0.000
 10
187.995
 20
101.441
 10
179.987
 20
101.441
  0
LWPOLYLINE
  5
144
 100
AcDbEntity
  8
P
 100
AcDbPolyline
 90
     2
 43
0.000
 10
179.987
 20
101.441
 10
179.987
 20
124.301
  0
LWPOLYLINE
  5
145
 100
AcDbEntity
  8
P
 100
AcDbPolyline
 90
     2
 43
0.000
 10
187.995
 20
124.301
 10
179.987
 20
124.301
  0
LWPOLYLINE
  5
146
 100
AcDbEntity
  8
P
 100
AcDbPolyline
 90
     2
 43
0.000
 10
187.995
 20
124.301
 10
187.995
 20
147.144
  0
LWPOLYLINE
  5
147
 100
AcDbEntity
  8
P
 100
AcDbPolyline
 90
     2
 43
0.000
 10
187.995
 20
147.144
 10
179.987
 20
147.144
  0
LWPOLYLINE
  5
148
 100
AcDbEntity
  8
P
 100
AcDbPolyline
 90
     2
 43
0.000
 10
179.987
 20
147.144
 10
179.987
 20
170.004
  0
LWPOLYLINE
  5
149
 100
AcDbEntity
  8
P
 100
AcDbPolyline
 90
     2
 43
0.000
 10
331.982
 20
10.001
 10
331.982
 20
32.861
  0
LWPOLYLINE
  5
150
 100
AcDbEntity
  8
P
 100
AcDbPolyline
 90
     2
 43
0.000
 10
339.990
 20
32.861
 10
331.982
 20
32.861
  0
LWPOLYLINE
  5
151
 100
AcDbEntity
  8
P
 100
AcDbPolyline
 90
     2
 43
0.000
 10
339.990
 20
32.861
 10
339.990
 20
55.721
  0
LWPOLYLINE
  5
152
 100
AcDbEntity
  8
P
 100
AcDbPolyline
 90
     2
 43
0.000
 10
339.990
 20
55.721
 10
331.982
 20
55.721
  0
LWPOLYLINE
  5
153
 100
AcDbEntity
  8
P
 100
AcDbPolyline
 90
     2
 43
0.000
 10
331.982
 20
55.721
 10
331.982
 20
78.581
  0
LWPOLYLINE
  5
154
 100
AcDbEntity
  8
P
 100
AcDbPolyline
 90
     2
 43
0.000
 10
339.990
 20
78.581
 10
331.982
 20
78.581
  0
LWPOLYLINE
  5
155
 100
AcDbEntity
  8
P
 100
AcDbPolyline
 90
     2
 43
0.000
 10
339.990
 20
78.581
 10
339.990
 20
101.441
  0
LWPOLYLINE
  5
156
 100
AcDbEntity
  8
P
 100
AcDbPolyline
 90
     2
 43
0.000
 10
339.990
 20
101.441
 10
331.982
 20
101.441
  0
LWPOLYLINE
  5
157
 100
AcDbEntity
  8
P
 100
AcDbPolyline
 90
     2
 43
0.000
 10
331.982
 20
101.441
 10
331.982
 20
124.301
  0
LWPOLYLINE
  5
158
 100
AcDbEntity
  8
P
 100
AcDbPolyline
 90
     2
 43
0.000
 10
339.990
 20
124.301
 10
331.982
 20
124.301
  0
LWPOLYLINE
  5
159
 100
AcDbEntity
  8
P
 100
AcDbPolyline
 90
     2
 43
0.000
 10
339.990
 20
124.301
 10
339.990
 20
147.144
  0
LWPOLYLINE
  5
160
 100
AcDbEntity
  8
P
 100
AcDbPolyline
 90
     2
 43
0.000
 10
339.990
 20
147.144
 10
331.982
 20
147.144
  0
LWPOLYLINE
  5
161
 100
AcDbEntity
  8
P
 100
AcDbPolyline
 90
     2
 43
0.000
 10
331.982
 20
147.144
 10
331.982
 20
170.004
  0
LWPOLYLINE
  5
162
 100
AcDbEntity
  8
P
 100
AcDbPolyline
 90
     2
 43
0.000
 10
10.001
 20
180.005
 10
32.844
 20
180.005
  0
LWPOLYLINE
  5
163
 100
AcDbEntity
  8
P
 100
AcDbPolyline
 90
     2
 43
0.000
 10
32.844
 20
188.013
 10
32.844
 20
180.005
  0
LWPOLYLINE
  5
164
 100
AcDbEntity
  8
P
 100
AcDbPolyline
 90
     2
 43
0.000
 10
32.844
 20
188.013
 10
55.704
 20
188.013
  0
LWPOLYLINE
  5
165
 100
AcDbEntity
  8
P
 100
AcDbPolyline
 90
     2
 43
0.000
 10
55.704
 20
188.013
 10
55.704
 20
180.005
  0
LWPOLYLINE
  5
166
 100
AcDbEntity
  8
P
 100
AcDbPolyline
 90
     2
 43
0.000
 10
55.704
 20
180.005
 10
78.564
 20
180.005
  0
LWPOLYLINE
  5
167
 100
AcDbEntity
  8
P
 100
AcDbPolyline
 90
     2
 43
0.000
 10
78.564
 20
188.013
 10
78.564
 20
180.005
  0
LWPOLYLINE
  5
168
 100
AcDbEntity
  8
P
 100
AcDbPolyline
 90
     2
 43
0.000
 10
78.564
 20
188.013
 10
101.424
 20
188.013
  0
LWPOLYLINE
  5
169
 100
AcDbEntity
  8
P
 100
AcDbPolyline
 90
     2
 43
0.000
 10
101.424
 20
188.013
 10
101.424
 20
180.005
  0
LWPOLYLINE
  5
170
 100
AcDbEntity
  8
P
 100
AcDbPolyline
 90
     2
 43
0.000
 10
101.424
 20
180.005
 10
124.284
 20
180.005
  0
LWPOLYLINE
  5
171
 100
AcDbEntity
  8
P
 100
AcDbPolyline
 90
     2
 43
0.000
 10
124.284
 20
188.013
 10
124.284
 20
180.005
  0
LWPOLYLINE
  5
172
 100
AcDbEntity
  8
P
 100
AcDbPolyline
 90
     2
 43
0.000
 10
124.284
 20
188.013
 10
147.144
 20
188.013
  0
LWPOLYLINE
  5
173
 100
AcDbEntity
  8
P
 100
AcDbPolyline
 90
     2
 43
0.000
 10
147.144
 20
188.013
 10
147.144
 20
180.005
  0
LWPOLYLINE
  5
174
 100
AcDbEntity
  8
P
 100
AcDbPolyline
 90
     2
 43
0.000
 10
147.144
 20
180.005
 10
161.996
 20
180.005
  0
LWPOLYLINE
  5
175
 100
AcDbEntity
  8
P
 100
AcDbPolyline
 90
     2
 43
0.000
 10
10.001
 20
340.007
 10
32.844
 20
340.007
  0
LWPOLYLINE
  5
176
 100
AcDbEntity
  8
P
 100
AcDbPolyline
 90
     2
 43
0.000
 10
32.844
 20
340.007
 10
32.844
 20
331.999
  0
LWPOLYLINE
  5
177
 100
AcDbEntity
  8
P
 100
AcDbPolyline
 90
     2
 43
0.000
 10
32.844
 20
331.999
 10
55.704
 20
331.999
  0
LWPOLYLINE
  5
178
 100
AcDbEntity
  8
P
 100
AcDbPolyline
 90
     2
 43
0.000
 10
55.704
 20
340.007
 10
55.704
 20
331.999
  0
LWPOLYLINE
  5
179
 100
AcDbEntity
  8
P
 100
AcDbPolyline
 90
     2
 43
0.000
 10
55.704
 20
340.007
 10
78.564
 20
340.007
  0
LWPOLYLINE
  5
180
 100
AcDbEntity
  8
P
 100
AcDbPolyline
 90
     2
 43
0.000
 10
78.564
 20
340.007
 10
78.564
 20
331.999
  0
LWPOLYLINE
  5
181
 100
AcDbEntity
  8
P
 100
AcDbPolyline
 90
     2
 43
0.000
 10
78.564
 20
331.999
 10
101.424
 20
331.999
  0
LWPOLYLINE
  5
182
 100
AcDbEntity
  8
P
 100
AcDbPolyline
 90
     2
 43
0.000
 10
101.424
 20
340.007
 10
101.424
 20
331.999
  0
LWPOLYLINE
  5
183
 100
AcDbEntity
  8
P
 100
AcDbPolyline
 90
     2
 43
0.000
 10
101.424
 20
340.007
 10
124.284
 20
340.007
  0
LWPOLYLINE
  5
184
 100
AcDbEntity
  8
P
 100
AcDbPolyline
 90
     2
 43
0.000
 10
124.284
 20
340.007
 10
124.284
 20
331.999
  0
LWPOLYLINE
  5
185
 100
AcDbEntity
  8
P
 100
AcDbPolyline
 90
     2
 43
0.000
 10
124.284
 20
331.999
 10
147.144
 20
331.999
  0
LWPOLYLINE
  5
186
 100
AcDbEntity
  8
P
 100
AcDbPolyline
 90
     2
 43
0.000
 10
147.144
 20
340.007
 10
147.144
 20
331.999
  0
LWPOLYLINE
  5
187
 100
AcDbEntity
  8
P
 100
AcDbPolyline
 90
     2
 43
0.000
 10
147.144
 20
340.007
 10
161.996
 20
340.007
  0
LWPOLYLINE
  5
188
 100
AcDbEntity
  8
P
 100
AcDbPolyline
 90
     2
 43
0.000
 10
10.001
 20
180.005
 10
10.001
 20
202.865
  0
LWPOLYLINE
  5
189
 100
AcDbEntity
  8
P
 100
AcDbPolyline
 90
     2
 43
0.000
 10
17.992
 20
202.865
 10
10.001
 20
202.865
  0
LWPOLYLINE
  5
190
 100
AcDbEntity
  8
P
 100
AcDbPolyline
 90
     2
 43
0.000
 10
17.992
 20
202.865
 10
17.992
 20
225.725
  0
LWPOLYLINE
  5
191
 100
AcDbEntity
  8
P
 100
AcDbPolyline
 90
     2
 43
0.000
 10
17.992
 20
225.725
 10
10.001
 20
225.725
  0
LWPOLYLINE
  5
192
 100
AcDbEntity
  8
P
 100
AcDbPolyline
 90
     2
 43
0.000
 10
10.001
 20
225.725
 10
10.001
 20
248.585
  0
LWPOLYLINE
  5
193
 100
AcDbEntity
  8
P
 100
AcDbPolyline
 90
     2
 43
0.000
 10
17.992
 20
248.585
 10
10.001
 20
248.585
  0
LWPOLYLINE
  5
194
 100
AcDbEntity
  8
P
 100
AcDbPolyline
 90
     2
 43
0.000
 10
17.992
 20
248.585
 10
17.992
 20
271.427
  0
LWPOLYLINE
  5
195
 100
AcDbEntity
  8
P
 100
AcDbPolyline
 90
     2
 43
0.000
 10
17.992
 20
271.427
 10
10.001
 20
271.427
  0
LWPOLYLINE
  5
196
 100
AcDbEntity
  8
P
 100
AcDbPolyline
 90
     2
 43
0.000
 10
10.001
 20
271.427
 10
10.001
 20
294.287
  0
LWPOLYLINE
  5
197
 100
AcDbEntity
  8
P
 100
AcDbPolyline
 90
     2
 43
0.000
 10
17.992
 20
294.287
 10
10.001
 20
294.287
  0
LWPOLYLINE
  5
198
 100
AcDbEntity
  8
P
 100
AcDbPolyline
 90
     2
 43
0.000
 10
17.992
 20
294.287
 10
17.992
 20
317.147
  0
LWPOLYLINE
  5
199
 100
AcDbEntity
  8
P
 100
AcDbPolyline
 90
     2
 43
0.000
 10
17.992
 20
317.147
 10
10.001
 20
317.147
  0
LWPOLYLINE
  5
200
 100
AcDbEntity
  8
P
 100
AcDbPolyline
 90
     2
 43
0.000
 10
10.001
 20
317.147
 10
10.001
 20
340.007
  0
LWPOLYLINE
  5
201
 100
AcDbEntity
  8
P
 100
AcDbPolyline
 90
     2
 43
0.000
 10
161.996
 20
180.005
 10
161.996
 20
202.865
  0
LWPOLYLINE
  5
202
 100
AcDbEntity
  8
P
 100
AcDbPolyline
 90
     2
 43
0.000
 10
169.986
 20
202.865
 10
161.996
 20
202.865
  0
LWPOLYLINE
  5
203
 100
AcDbEntity
  8
P
 100
AcDbPolyline
 90
     2
 43
0.000
 10
169.986
 20
202.865
 10
169.986
 20
225.725
  0
LWPOLYLINE
  5
204
 100
AcDbEntity
  8
P
 100
AcDbPolyline
 90
     2
 43
0.000
 10
169.986
 20
225.725
 10
161.996
 20
225.725
  0
LWPOLYLINE
  5
205
 100
AcDbEntity
  8
P
 100
AcDbPolyline
 90
     2
 43
0.000
 10
161.996
 20
225.725
 10
161.996
 20
248.585
  0
LWPOLYLINE
  5
206
 100
AcDbEntity
  8
P
 100
AcDbPolyline
 90
     2
 43
0.000
 10
169.986
 20
248.585
 10
161.996
 20
248.585
  0
LWPOLYLINE
  5
207
 100
AcDbEntity
  8
P
 100
AcDbPolyline
 90
     2
 43
0.000
 10
169.986
 20
248.585
 10
169.986
 20
271.427
  0
LWPOLYLINE
  5
208
 100
AcDbEntity
  8
P
 100
AcDbPolyline
 90
     2
 43
0.000
 10
169.986
 20
271.427
 10
161.996
 20
271.427
  0
LWPOLYLINE
  5
209
 100
AcDbEntity
  8
P
 100
AcDbPolyline
 90
     2
 43
0.000
 10
161.996
 20
271.427
 10
161.996
 20
294.287
  0
LWPOLYLINE
  5
210
 100
AcDbEntity
  8
P
 100
AcDbPolyline
 90
     2
 43
0.000
 10
169.986
 20
294.287
 10
161.996
 20
294.287
  0
LWPOLYLINE
  5
211
 100
AcDbEntity
  8
P
 100
AcDbPolyline
 90
     2
 43
0.000
 10
169.986
 20
294.287
 10
169.986
 20
317.147
  0
LWPOLYLINE
  5
212
 100
AcDbEntity
  8
P
 100
AcDbPolyline
 90
     2
 43
0.000
 10
169.986
 20
317.147
 10
161.996
 20
317.147
  0
LWPOLYLINE
  5
213
 100
AcDbEntity
  8
P
 100
AcDbPolyline
 90
     2
 43
0.000
 10
161.996
 20
317.147
 10
161.996
 20
340.007
  0
LWPOLYLINE
  5
214
 100
AcDbEntity
  8
P
 100
AcDbPolyline
 90
     2
 43
0.000
 10
187.995
 20
188.013
 10
202.847
 20
188.013
  0
LWPOLYLINE
  5
215
 100
AcDbEntity
  8
P
 100
AcDbPolyline
 90
     2
 43
0.000
 10
202.847
 20
188.013
 10
202.847
 20
180.005
  0
LWPOLYLINE
  5
216
 100
AcDbEntity
  8
P
 100
AcDbPolyline
 90
     2
 43
0.000
 10
202.847
 20
180.005
 10
225.707
 20
180.005
  0
LWPOLYLINE
  5
217
 100
AcDbEntity
  8
P
 100
AcDbPolyline
 90
     2
 43
0.000
 10
225.707
 20
188.013
 10
225.707
 20
180.005
  0
LWPOLYLINE
  5
218
 100
AcDbEntity
  8
P
 100
AcDbPolyline
 90
     2
 43
0.000
 10
225.707
 20
188.013
 10
248.567
 20
188.013
  0
LWPOLYLINE
  5
219
 100
AcDbEntity
  8
P
 100
AcDbPolyline
 90
     2
 43
0.000
 10
248.567
 20
188.013
 10
248.567
 20
180.005
  0
LWPOLYLINE
  5
220
 100
AcDbEntity
  8
P
 100
AcDbPolyline
 90
     2
 43
0.000
 10
248.567
 20
180.005
 10
271.427
 20
180.005
  0
LWPOLYLINE
  5
221
 100
AcDbEntity
  8
P
 100
AcDbPolyline
 90
     2
 43
0.000
 10
271.427
 20
188.013
 10
271.427
 20
180.005
  0
LWPOLYLINE
  5
222
 100
AcDbEntity
  8
P
 100
AcDbPolyline
 90
     2
 43
0.000
 10
271.427
 20
188.013
 10
294.287
 20
188.013
  0
LWPOLYLINE
  5
223
 100
AcDbEntity
  8
P
 100
AcDbPolyline
 90
     2
 43
0.000
 10
294.287
 20
188.013
 10
294.287
 20
180.005
  0
LWPOLYLINE
  5
224
 100
AcDbEntity
  8
P
 100
AcDbPolyline
 90
     2
 43
0.000
 10
294.287
 20
180.005
 10
317.130
 20
180.005
  0
LWPOLYLINE
  5
225
 100
AcDbEntity
  8
P
 100
AcDbPolyline
 90
     2
 43
0.000
 10
317.130
 20
188.013
 10
317.130
 20
180.005
  0
LWPOLYLINE
  5
226
 100
AcDbEntity
  8
P
 100
AcDbPolyline
 90
     2
 43
0.000
 10
317.130
 20
188.013
 10
331.982
 20
188.013
  0
LWPOLYLINE
  5
227
 100
AcDbEntity
  8
P
 100
AcDbPolyline
 90
     2
 43
0.000
 10
187.995
 20
331.999
 10
202.847
 20
331.999
  0
LWPOLYLINE
  5
228
 100
AcDbEntity
  8
P
 100
AcDbPolyline
 90
     2
 43
0.000
 10
202.847
 20
340.007
 10
202.847
 20
331.999
  0
LWPOLYLINE
  5
229
 100
AcDbEntity
  8
P
 100
AcDbPolyline
 90
     2
 43
0.000
 10
202.847
 20
340.007
 10
225.707
 20
340.007
  0
LWPOLYLINE
  5
230
 100
AcDbEntity
  8
P
 100
AcDbPolyline
 90
     2
 43
0.000
 10
225.707
 20
340.007
 10
225.707
 20
331.999
  0
LWPOLYLINE
  5
231
 100
AcDbEntity
  8
P
 100
AcDbPolyline
 90
     2
 43
0.000
 10
225.707
 20
331.999
 10
248.567
 20
331.999
  0
LWPOLYLINE
  5
232
 100
AcDbEntity
  8
P
 100
AcDbPolyline
 90
     2
 43
0.000
 10
248.567
 20
340.007
 10
248.567
 20
331.999
  0
LWPOLYLINE
  5
233
 100
AcDbEntity
  8
P
 100
AcDbPolyline
 90
     2
 43
0.000
 10
248.567
 20
340.007
 10
271.427
 20
340.007
  0
LWPOLYLINE
  5
234
 100
AcDbEntity
  8
P
 100
AcDbPolyline
 90
     2
 43
0.000
 10
271.427
 20
340.007
 10
271.427
 20
331.999
  0
LWPOLYLINE
  5
235
 100
AcDbEntity
  8
P
 100
AcDbPolyline
 90
     2
 43
0.000
 10
271.427
 20
331.999
 10
294.287
 20
331.999
  0
LWPOLYLINE
  5
236
 100
AcDbEntity
  8
P
 100
AcDbPolyline
 90
     2
 43
0.000
 10
294.287
 20
340.007
 10
294.287
 20
331.999
  0
LWPOLYLINE
  5
237
 100
AcDbEntity
  8
P
 100
AcDbPolyline
 90
     2
 43
0.000
 10
294.287
 20
340.007
 10
317.130
 20
340.007
  0
LWPOLYLINE
  5
238
 100
AcDbEntity
  8
P
 100
AcDbPolyline
 90
     2
 43
0.000
 10
317.130
 20
340.007
 10
317.130
 20
331.999
  0
LWPOLYLINE
  5
239
 100
AcDbEntity
  8
P
 100
AcDbPolyline
 90
     2
 43
0.000
 10
317.130
 20
331.999
 10
331.982
 20
331.999
  0
LWPOLYLINE
  5
240
 100
AcDbEntity
  8
P
 100
AcDbPolyline
 90
     2
 43
0.000
 10
187.995
 20
188.013
 10
187.995
 20
202.865
  0
LWPOLYLINE
  5
241
 100
AcDbEntity
  8
P
 100
AcDbPolyline
 90
     2
 43
0.000
 10
187.995
 20
202.865
 10
179.987
 20
202.865
  0
LWPOLYLINE
  5
242
 100
AcDbEntity
  8
P
 100
AcDbPolyline
 90
     2
 43
0.000
 10
179.987
 20
202.865
 10
179.987
 20
225.725
  0
LWPOLYLINE
  5
243
 100
AcDbEntity
  8
P
 100
AcDbPolyline
 90
     2
 43
0.000
 10
187.995
 20
225.725
 10
179.987
 20
225.725
  0
LWPOLYLINE
  5
244
 100
AcDbEntity
  8
P
 100
AcDbPolyline
 90
     2
 43
0.000
 10
187.995
 20
225.725
 10
187.995
 20
248.585
  0
LWPOLYLINE
  5
245
 100
AcDbEntity
  8
P
 100
AcDbPolyline
 90
     2
 43
0.000
 10
187.995
 20
248.585
 10
179.987
 20
248.585
  0
LWPOLYLINE
  5
246
 100
AcDbEntity
  8
P
 100
AcDbPolyline
 90
     2
 43
0.000
 10
179.987
 20
248.585
 10
179.987
 20
271.427
  0
LWPOLYLINE
  5
247
 100
AcDbEntity
  8
P
 100
AcDbPolyline
 90
     2
 43
0.000
 10
187.995
 20
271.427
 10
179.987
 20
271.427
  0
LWPOLYLINE
  5
248
 100
AcDbEntity
  8
P
 100
AcDbPolyline
 90
     2
 43
0.000
 10
187.995
 20
271.427
 10
187.995
 20
294.287
  0
LWPOLYLINE
  5
249
 100
AcDbEntity
  8
P
 100
AcDbPolyline
 90
     2
 43
0.000
 10
187.995
 20
294.287
 10
179.987
 20
294.287
  0
LWPOLYLINE
  5
250
 100
AcDbEntity
  8
P
 100
AcDbPolyline
 90
     2
 43
0.000
 10
179.987
 20
294.287
 10
179.987
 20
317.147
  0
LWPOLYLINE
  5
251
 100
AcDbEntity
  8
P
 100
AcDbPolyline
 90
     2
 43
0.000
 10
187.995
 20
317.147
 10
179.987
 20
317.147
  0
LWPOLYLINE
  5
252
 100
AcDbEntity
  8
P
 100
AcDbPolyline
 90
     2
 43
0.000
 10
187.995
 20
317.147
 10
187.995
 20
331.999
  0
LWPOLYLINE
  5
253
 100
AcDbEntity
  8
P
 100
AcDbPolyline
 90
     2
 43
0.000
 10
331.982
 20
188.013
 10
331.982
 20
202.865
  0
LWPOLYLINE
  5
254
 100
AcDbEntity
  8
P
 100
AcDbPolyline
 90
     2
 43
0.000
 10
339.990
 20
202.865
 10
331.982
 20
202.865
  0
LWPOLYLINE
  5
255
 100
AcDbEntity
  8
P
 100
AcDbPolyline
 90
     2
 43
0.000
 10
339.990
 20
202.865
 10
339.990
 20
225.725
  0
LWPOLYLINE
  5
256
 100
AcDbEntity
  8
P
 100
AcDbPolyline
 90
     2
 43
0.000
 10
339.990
 20
225.725
 10
331.982
 20
225.725
  0
LWPOLYLINE
  5
257
 100
AcDbEntity
  8
P
 100
AcDbPolyline
 90
     2
 43
0.000
 10
331.982
 20
225.725
 10
331.982
 20
248.585
  0
LWPOLYLINE
  5
258
 100
AcDbEntity
  8
P
 100
AcDbPolyline
 90
     2
 43
0.000
 10
339.990
 20
248.585
 10
331.982
 20
248.585
  0
LWPOLYLINE
  5
259
 100
AcDbEntity
  8
P
 100
AcDbPolyline
 90
     2
 43
0.000
 10
339.990
 20
248.585
 10
339.990
 20
271.427
  0
LWPOLYLINE
  5
260
 100
AcDbEntity
  8
P
 100
AcDbPolyline
 90
     2
 43
0.000
 10
339.990
 20
271.427
 10
331.982
 20
271.427
  0
LWPOLYLINE
  5
261
 100
AcDbEntity
  8
P
 100
AcDbPolyline
 90
     2
 43
0.000
 10
331.982
 20
271.427
 10
331.982
 20
294.287
  0
LWPOLYLINE
  5
262
 100
AcDbEntity
  8
P
 100
AcDbPolyline
 90
     2
 43
0.000
 10
339.990
 20
294.287
 10
331.982
 20
294.287
  0
LWPOLYLINE
  5
263
 100
AcDbEntity
  8
P
 100
AcDbPolyline
 90
     2
 43
0.000
 10
339.990
 20
294.287
 10
339.990
 20
317.147
  0
LWPOLYLINE
  5
264
 100
AcDbEntity
  8
P
 100
AcDbPolyline
 90
     2
 43
0.000
 10
339.990
 20
317.147
 10
331.982
 20
317.147
  0
LWPOLYLINE
  5
265
 100
AcDbEntity
  8
P
 100
AcDbPolyline
 90
     2
 43
0.000
 10
331.982
 20
317.147
 10
331.982
 20
331.999
  0
LWPOLYLINE
  5
266
 100
AcDbEntity
  8
P
 100
AcDbPolyline
 90
     2
 43
0.000
 10
349.991
 20
180.005
 10
372.851
 20
180.005
  0
LWPOLYLINE
  5
267
 100
AcDbEntity
  8
P
 100
AcDbPolyline
 90
     2
 43
0.000
 10
372.851
 20
188.013
 10
372.851
 20
180.005
  0
LWPOLYLINE
  5
268
 100
AcDbEntity
  8
P
 100
AcDbPolyline
 90
     2
 43
0.000
 10
372.851
 20
188.013
 10
395.711
 20
188.013
  0
LWPOLYLINE
  5
269
 100
AcDbEntity
  8
P
 100
AcDbPolyline
 90
     2
 43
0.000
 10
395.711
 20
188.013
 10
395.711
 20
180.005
  0
LWPOLYLINE
  5
270
 100
AcDbEntity
  8
P
 100
AcDbPolyline
 90
     2
 43
0.000
 10
395.711
 20
180.005
 10
418.571
 20
180.005
  0
LWPOLYLINE
  5
271
 100
AcDbEntity
  8
P
 100
AcDbPolyline
 90
     2
 43
0.000
 10
418.571
 20
188.013
 10
418.571
 20
180.005
  0
LWPOLYLINE
  5
272
 100
AcDbEntity
  8
P
 100
AcDbPolyline
 90
     2
 43
0.000
 10
418.571
 20
188.013
 10
441.413
 20
188.013
  0
LWPOLYLINE
  5
273
 100
AcDbEntity
  8
P
 100
AcDbPolyline
 90
     2
 43
0.000
 10
441.413
 20
188.013
 10
441.413
 20
180.005
  0
LWPOLYLINE
  5
274
 100
AcDbEntity
  8
P
 100
AcDbPolyline
 90
     2
 43
0.000
 10
441.413
 20
180.005
 10
464.273
 20
180.005
  0
LWPOLYLINE
  5
275
 100
AcDbEntity
  8
P
 100
AcDbPolyline
 90
     2
 43
0.000
 10
464.273
 20
188.013
 10
464.273
 20
180.005
  0
LWPOLYLINE
  5
276
 100
AcDbEntity
  8
P
 100
AcDbPolyline
 90
     2
 43
0.000
 10
464.273
 20
188.013
 10
487.133
 20
188.013
  0
LWPOLYLINE
  5
277
 100
AcDbEntity
  8
P
 100
AcDbPolyline
 90
     2
 43
0.000
 10
487.133
 20
188.013
 10
487.133
 20
180.005
  0
LWPOLYLINE
  5
278
 100
AcDbEntity
  8
P
 100
AcDbPolyline
 90
     2
 43
0.000
 10
487.133
 20
180.005
 10
501.985
 20
180.005
  0
LWPOLYLINE
  5
279
 100
AcDbEntity
  8
P
 100
AcDbPolyline
 90
     2
 43
0.000
 10
349.991
 20
340.007
 10
372.851
 20
340.007
  0
LWPOLYLINE
  5
280
 100
AcDbEntity
  8
P
 100
AcDbPolyline
 90
     2
 43
0.000
 10
372.851
 20
340.007
 10
372.851
 20
331.999
  0
LWPOLYLINE
  5
281
 100
AcDbEntity
  8
P
 100
AcDbPolyline
 90
     2
 43
0.000
 10
372.851
 20
331.999
 10
395.711
 20
331.999
  0
LWPOLYLINE
  5
282
 100
AcDbEntity
  8
P
 100
AcDbPolyline
 90
     2
 43
0.000
 10
395.711
 20
340.007
 10
395.711
 20
331.999
  0
LWPOLYLINE
  5
283
 100
AcDbEntity
  8
P
 100
AcDbPolyline
 90
     2
 43
0.000
 10
395.711
 20
340.007
 10
418.571
 20
340.007
  0
LWPOLYLINE
  5
284
 100
AcDbEntity
  8
P
 100
AcDbPolyline
 90
     2
 43
0.000
 10
418.571
 20
340.007
 10
418.571
 20
331.999
  0
LWPOLYLINE
  5
285
 100
AcDbEntity
  8
P
 100
AcDbPolyline
 90
     2
 43
0.000
 10
418.571
 20
331.999
 10
441.413
 20
331.999
  0
LWPOLYLINE
  5
286
 100
AcDbEntity
  8
P
 100
AcDbPolyline
 90
     2
 43
0.000
 10
441.413
 20
340.007
 10
441.413
 20
331.999
  0
LWPOLYLINE
  5
287
 100
AcDbEntity
  8
P
 100
AcDbPolyline
 90
     2
 43
0.000
 10
441.413
 20
340.007
 10
464.273
 20
340.007
  0
LWPOLYLINE
  5
288
 100
AcDbEntity
  8
P
 100
AcDbPolyline
 90
     2
 43
0.000
 10
464.273
 20
340.007
 10
464.273
 20
331.999
  0
LWPOLYLINE
  5
289
 100
AcDbEntity
  8
P
 100
AcDbPolyline
 90
     2
 43
0.000
 10
464.273
 20
331.999
 10
487.133
 20
331.999
  0
LWPOLYLINE
  5
290
 100
AcDbEntity
  8
P
 100
AcDbPolyline
 90
     2
 43
0.000
 10
487.133
 20
340.007
 10
487.133
 20
331.999
  0
LWPOLYLINE
  5
291
 100
AcDbEntity
  8
P
 100
AcDbPolyline
 90
     2
 43
0.000
 10
487.133
 20
340.007
 10
501.985
 20
340.007
  0
LWPOLYLINE
  5
292
 100
AcDbEntity
  8
P
 100
AcDbPolyline
 90
     2
 43
0.000
 10
349.991
 20
180.005
 10
349.991
 20
202.865
  0
LWPOLYLINE
  5
293
 100
AcDbEntity
  8
P
 100
AcDbPolyline
 90
     2
 43
0.000
 10
357.981
 20
202.865
 10
349.991
 20
202.865
  0
LWPOLYLINE
  5
294
 100
AcDbEntity
  8
P
 100
AcDbPolyline
 90
     2
 43
0.000
 10
357.981
 20
202.865
 10
357.981
 20
225.725
  0
LWPOLYLINE
  5
295
 100
AcDbEntity
  8
P
 100
AcDbPolyline
 90
     2
 43
0.000
 10
357.981
 20
225.725
 10
349.991
 20
225.725
  0
LWPOLYLINE
  5
296
 100
AcDbEntity
  8
P
 100
AcDbPolyline
 90
     2
 43
0.000
 10
349.991
 20
225.725
 10
349.991
 20
248.585
  0
LWPOLYLINE
  5
297
 100
AcDbEntity
  8
P
 100
AcDbPolyline
 90
     2
 43
0.000
 10
357.981
 20
248.585
 10
349.991
 20
248.585
  0
LWPOLYLINE
  5
298
 100
AcDbEntity
  8
P
 100
AcDbPolyline
 90
     2
 43
0.000
 10
357.981
 20
248.585
 10
357.981
 20
271.427
  0
LWPOLYLINE
  5
299
 100
AcDbEntity
  8
P
 100
AcDbPolyline
 90
     2
 43
0.000
 10
357.981
 20
271.427
 10
349.991
 20
271.427
  0
LWPOLYLINE
  5
300
 100
AcDbEntity
  8
P
 100
AcDbPolyline
 90
     2
 43
0.000
 10
349.991
 20
271.427
 10
349.991
 20
294.287
  0
LWPOLYLINE
  5
301
 100
AcDbEntity
  8
P
 100
AcDbPolyline
 90
     2
 43
0.000
 10
357.981
 20
294.287
 10
349.991
 20
294.287
  0
LWPOLYLINE
  5
302
 100
AcDbEntity
  8
P
 100
AcDbPolyline
 90
     2
 43
0.000
 10
357.981
 20
294.287
 10
357.981
 20
317.147
  0
LWPOLYLINE
  5
303
 100
AcDbEntity
  8
P
 100
AcDbPolyline
 90
     2
 43
0.000
 10
357.981
 20
317.147
 10
349.991
 20
317.147
  0
LWPOLYLINE
  5
304
 100
AcDbEntity
  8
P
 100
AcDbPolyline
 90
     2
 43
0.000
 10
349.991
 20
317.147
 10
349.991
 20
340.007
  0
LWPOLYLINE
  5
305
 100
AcDbEntity
  8
P
 100
AcDbPolyline
 90
     2
 43
0.000
 10
501.985
 20
180.005
 10
501.985
 20
202.865
  0
LWPOLYLINE
  5
306
 100
AcDbEntity
  8
P
 100
AcDbPolyline
 90
     2
 43
0.000
 10
509.993
 20
202.865
 10
501.985
 20
202.865
  0
LWPOLYLINE
  5
307
 100
AcDbEntity
  8
P
 100
AcDbPolyline
 90
     2
 43
0.000
 10
509.993
 20
202.865
 10
509.993
 20
225.725
  0
LWPOLYLINE
  5
308
 100
AcDbEntity
  8
P
 100
AcDbPolyline
 90
     2
 43
0.000
 10
509.993
 20
225.725
 10
501.985
 20
225.725
  0
LWPOLYLINE
  5
309
 100
AcDbEntity
  8
P
 100
AcDbPolyline
 90
     2
 43
0.000
 10
501.985
 20
225.725
 10
501.985
 20
248.585
  0
LWPOLYLINE
  5
310
 100
AcDbEntity
  8
P
 100
AcDbPolyline
 90
     2
 43
0.000
 10
509.993
 20
248.585
 10
501.985
 20
248.585
  0
LWPOLYLINE
  5
311
 100
AcDbEntity
  8
P
 100
AcDbPolyline
 90
     2
 43
0.000
 10
509.993
 20
248.585
 10
509.993
 20
271.427
  0
LWPOLYLINE
  5
312
 100
AcDbEntity
  8
P
 100
AcDbPolyline
 90
     2
 43
0.000
 10
509.993
 20
271.427
 10
501.985
 20
271.427
  0
LWPOLYLINE
  5
313
 100
AcDbEntity
  8
P
 100
AcDbPolyline
 90
     2
 43
0.000
 10
501.985
 20
271.427
 10
501.985
 20
294.287
  0
LWPOLYLINE
  5
314
 100
AcDbEntity
  8
P
 100
AcDbPolyline
 90
     2
 43
0.000
 10
509.993
 20
294.287
 10
501.985
 20
294.287
  0
LWPOLYLINE
  5
315
 100
AcDbEntity
  8
P
 100
AcDbPolyline
 90
     2
 43
0.000
 10
509.993
 20
294.287
 10
509.993
 20
317.147
  0
LWPOLYLINE
  5
316
 100
AcDbEntity
  8
P
 100
AcDbPolyline
 90
     2
 43
0.000
 10
509.993
 20
317.147
 10
501.985
 20
317.147
  0
LWPOLYLINE
  5
317
 100
AcDbEntity
  8
P
 100
AcDbPolyline
 90
     2
 43
0.000
 10
501.985
 20
317.147
 10
501.985
 20
340.007
  0
LWPOLYLINE
  5
318
 100
AcDbEntity
  8
P
 100
AcDbPolyline
 90
     2
 43
0.000
 10
179.987
 20
350.008
 10
202.847
 20
350.008
  0
LWPOLYLINE
  5
319
 100
AcDbEntity
  8
P
 100
AcDbPolyline
 90
     2
 43
0.000
 10
202.847
 20
357.999
 10
202.847
 20
350.008
  0
LWPOLYLINE
  5
320
 100
AcDbEntity
  8
P
 100
AcDbPolyline
 90
     2
 43
0.000
 10
202.847
 20
357.999
 10
225.707
 20
357.999
  0
LWPOLYLINE
  5
321
 100
AcDbEntity
  8
P
 100
AcDbPolyline
 90
     2
 43
0.000
 10
225.707
 20
357.999
 10
225.707
 20
350.008
  0
LWPOLYLINE
  5
322
 100
AcDbEntity
  8
P
 100
AcDbPolyline
 90
     2
 43
0.000
 10
225.707
 20
350.008
 10
248.567
 20
350.008
  0
LWPOLYLINE
  5
323
 100
AcDbEntity
  8
P
 100
AcDbPolyline
 90
     2
 43
0.000
 10
248.567
 20
357.999
 10
248.567
 20
350.008
  0
LWPOLYLINE
  5
324
 100
AcDbEntity
  8
P
 100
AcDbPolyline
 90
     2
 43
0.000
 10
248.567
 20
357.999
 10
271.427
 20
357.999
  0
LWPOLYLINE
  5
325
 100
AcDbEntity
  8
P
 100
AcDbPolyline
 90
     2
 43
0.000
 10
271.427
 20
357.999
 10
271.427
 20
350.008
  0
LWPOLYLINE
  5
326
 100
AcDbEntity
  8
P
 100
AcDbPolyline
 90
     2
 43
0.000
 10
271.427
 20
350.008
 10
294.287
 20
350.008
  0
LWPOLYLINE
  5
327
 100
AcDbEntity
  8
P
 100
AcDbPolyline
 90
     2
 43
0.000
 10
294.287
 20
357.999
 10
294.287
 20
350.008
  0
LWPOLYLINE
  5
328
 100
AcDbEntity
  8
P
 100
AcDbPolyline
 90
     2
 43
0.000
 10
294.287
 20
357.999
 10
317.130
 20
357.999
  0
LWPOLYLINE
  5
329
 100
AcDbEntity
  8
P
 100
AcDbPolyline
 90
     2
 43
0.000
 10
317.130
 20
357.999
 10
317.130
 20
350.008
  0
LWPOLYLINE
  5
330
 100
AcDbEntity
  8
P
 100
AcDbPolyline
 90
     2
 43
0.000
 10
317.130
 20
350.008
 10
331.982
 20
350.008
  0
LWPOLYLINE
  5
331
 100
AcDbEntity
  8
P
 100
AcDbPolyline
 90
     2
 43
0.000
 10
179.987
 20
510.011
 10
202.847
 20
510.011
  0
LWPOLYLINE
  5
332
 100
AcDbEntity
  8
P
 100
AcDbPolyline
 90
     2
 43
0.000
 10
202.847
 20
510.011
 10
202.847
 20
502.003
  0
LWPOLYLINE
  5
333
 100
AcDbEntity
  8
P
 100
AcDbPolyline
 90
     2
 43
0.000
 10
202.847
 20
502.003
 10
225.707
 20
502.003
  0
LWPOLYLINE
  5
334
 100
AcDbEntity
  8
P
 100
AcDbPolyline
 90
     2
 43
0.000
 10
225.707
 20
510.011
 10
225.707
 20
502.003
  0
LWPOLYLINE
  5
335
 100
AcDbEntity
  8
P
 100
AcDbPolyline
 90
     2
 43
0.000
 10
225.707
 20
510.011
 10
248.567
 20
510.011
  0
LWPOLYLINE
  5
336
 100
AcDbEntity
  8
P
 100
AcDbPolyline
 90
     2
 43
0.000
 10
248.567
 20
510.011
 10
248.567
 20
502.003
  0
LWPOLYLINE
  5
337
 100
AcDbEntity
  8
P
 100
AcDbPolyline
 90
     2
 43
0.000
 10
248.567
 20
502.003
 10
271.427
 20
502.003
  0
LWPOLYLINE
  5
338
 100
AcDbEntity
  8
P
 100
AcDbPolyline
 90
     2
 43
0.000
 10
271.427
 20
510.011
 10
271.427
 20
502.003
  0
LWPOLYLINE
  5
339
 100
AcDbEntity
  8
P
 100
AcDbPolyline
 90
     2
 43
0.000
 10
271.427
 20
510.011
 10
294.287
 20
510.011
  0
LWPOLYLINE
  5
340
 100
AcDbEntity
  8
P
 100
AcDbPolyline
 90
     2
 43
0.000
 10
294.287
 20
510.011
 10
294.287
 20
502.003
  0
LWPOLYLINE
  5
341
 100
AcDbEntity
  8
P
 100
AcDbPolyline
 90
     2
 43
0.000
 10
294.287
 20
502.003
 10
317.130
 20
502.003
  0
LWPOLYLINE
  5
342
 100
AcDbEntity
  8
P
 100
AcDbPolyline
 90
     2
 43
0.000
 10
317.130
 20
510.011
 10
317.130
 20
502.003
  0
LWPOLYLINE
  5
343
 100
AcDbEntity
  8
P
 100
AcDbPolyline
 90
     2
 43
0.000
 10
317.130
 20
510.011
 10
331.982
 20
510.011
  0
LWPOLYLINE
  5
344
 100
AcDbEntity
  8
P
 100
AcDbPolyline
 90
     2
 43
0.000
 10
179.987
 20
350.008
 10
179.987
 20
372.868
  0
LWPOLYLINE
  5
345
 100
AcDbEntity
  8
P
 100
AcDbPolyline
 90
     2
 43
0.000
 10
187.995
 20
372.868
 10
179.987
 20
372.868
  0
LWPOLYLINE
  5
346
 100
AcDbEntity
  8
P
 100
AcDbPolyline
 90
     2
 43
0.000
 10
187.995
 20
372.868
 10
187.995
 20
395.728
  0
LWPOLYLINE
  5
347
 100
AcDbEntity
  8
P
 100
AcDbPolyline
 90
     2
 43
0.000
 10
187.995
 20
395.728
 10
179.987
 20
395.728
  0
LWPOLYLINE
  5
348
 100
AcDbEntity
  8
P
 100
AcDbPolyline
 90
     2
 43
0.000
 10
179.987
 20
395.728
 10
179.987
 20
418.571
  0
LWPOLYLINE
  5
349
 100
AcDbEntity
  8
P
 100
AcDbPolyline
 90
     2
 43
0.000
 10
187.995
 20
418.571
 10
179.987
 20
418.571
  0
LWPOLYLINE
  5
350
 100
AcDbEntity
  8
P
 100
AcDbPolyline
 90
     2
 43
0.000
 10
187.995
 20
418.571
 10
187.995
 20
441.431
  0
LWPOLYLINE
  5
351
 100
AcDbEntity
  8
P
 100
AcDbPolyline
 90
     2
 43
0.000
 10
187.995
 20
441.431
 10
179.987
 20
441.431
  0
LWPOLYLINE
  5
352
 100
AcDbEntity
  8
P
 100
AcDbPolyline
 90
     2
 43
0.000
 10
179.987
 20
441.431
 10
179.987
 20
464.291
  0
LWPOLYLINE
  5
353
 100
AcDbEntity
  8
P
 100
AcDbPolyline
 90
     2
 43
0.000
 10
187.995
 20
464.291
 10
179.987
 20
464.291
  0
LWPOLYLINE
  5
354
 100
AcDbEntity
  8
P
 100
AcDbPolyline
 90
     2
 43
0.000
 10
187.995
 20
464.291
 10
187.995
 20
487.151
  0
LWPOLYLINE
  5
355
 100
AcDbEntity
  8
P
 100
AcDbPolyline
 90
     2
 43
0.000
 10
187.995
 20
487.151
 10
179.987
 20
487.151
  0
LWPOLYLINE
  5
356
 100
AcDbEntity
  8
P
 100
AcDbPolyline
 90
     2
 43
0.000
 10
179.987
 20
487.151
 10
179.987
 20
510.011
  0
LWPOLYLINE
  5
357
 100
AcDbEntity
  8
P
 100
AcDbPolyline
 90
     2
 43
0.000
 10
331.982
 20
350.008
 10
331.982
 20
372.868
  0
LWPOLYLINE
  5
358
 100
AcDbEntity
  8
P
 100
AcDbPolyline
 90
     2
 43
0.000
 10
339.990
 20
372.868
 10
331.982
 20
372.868
  0
LWPOLYLINE
  5
359
 100
AcDbEntity
  8
P
 100
AcDbPolyline
 90
     2
 43
0.000
 10
339.990
 20
372.868
 10
339.990
 20
395.728
  0
LWPOLYLINE
  5
360
 100
AcDbEntity
  8
P
 100
AcDbPolyline
 90
     2
 43
0.000
 10
339.990
 20
395.728
 10
331.982
 20
395.728
  0
LWPOLYLINE
  5
361
 100
AcDbEntity
  8
P
 100
AcDbPolyline
 90
     2
 43
0.000
 10
331.982
 20
395.728
 10
331.982
 20
418.571
  0
LWPOLYLINE
  5
362
 100
AcDbEntity
  8
P
 100
AcDbPolyline
 90
     2
 43
0.000
 10
339.990
 20
418.571
 10
331.982
 20
418.571
  0
LWPOLYLINE
  5
363
 100
AcDbEntity
  8
P
 100
AcDbPolyline
 90
     2
 43
0.000
 10
339.990
 20
418.571
 10
339.990
 20
441.431
  0
LWPOLYLINE
  5
364
 100
AcDbEntity
  8
P
 100
AcDbPolyline
 90
     2
 43
0.000
 10
339.990
 20
441.431
 10
331.982
 20
441.431
  0
LWPOLYLINE
  5
365
 100
AcDbEntity
  8
P
 100
AcDbPolyline
 90
     2
 43
0.000
 10
331.982
 20
441.431
 10
331.982
 20
464.291
  0
LWPOLYLINE
  5
366
 100
AcDbEntity
  8
P
 100
AcDbPolyline
 90
     2
 43
0.000
 10
339.990
 20
464.291
 10
331.982
 20
464.291
  0
LWPOLYLINE
  5
367
 100
AcDbEntity
  8
P
 100
AcDbPolyline
 90
     2
 43
0.000
 10
339.990
 20
464.291
 10
339.990
 20
487.151
  0
LWPOLYLINE
  5
368
 100
AcDbEntity
  8
P
 100
AcDbPolyline
 90
     2
 43
0.000
 10
339.990
 20
487.151
 10
331.982
 20
487.151
  0
LWPOLYLINE
  5
369
 100
AcDbEntity
  8
P
 100
AcDbPolyline
 90
     2
 43
0.000
 10
331.982
 20
487.151
 10
331.982
 20
510.011
  0
LWPOLYLINE
  5
370
 100
AcDbEntity
  8
P
 100
AcDbPolyline
 90
     2
 43
0.000
 10
187.995
 20
528.003
 10
202.847
 20
528.003
  0
LWPOLYLINE
  5
371
 100
AcDbEntity
  8
P
 100
AcDbPolyline
 90
     2
 43
0.000
 10
202.847
 20
528.003
 10
202.847
 20
520.012
  0
LWPOLYLINE
  5
372
 100
AcDbEntity
  8
P
 100
AcDbPolyline
 90
     2
 43
0.000
 10
202.847
 20
520.012
 10
225.707
 20
520.012
  0
LWPOLYLINE
  5
373
 100
AcDbEntity
  8
P
 100
AcDbPolyline
 90
     2
 43
0.000
 10
225.707
 20
528.003
 10
225.707
 20
520.012
  0
LWPOLYLINE
  5
374
 100
AcDbEntity
  8
P
 100
AcDbPolyline
 90
     2
 43
0.000
 10
225.707
 20
528.003
 10
248.567
 20
528.003
  0
LWPOLYLINE
  5
375
 100
AcDbEntity
  8
P
 100
AcDbPolyline
 90
     2
 43
0.000
 10
248.567
 20
528.003
 10
248.567
 20
520.012
  0
LWPOLYLINE
  5
376
 100
AcDbEntity
  8
P
 100
AcDbPolyline
 90
     2
 43
0.000
 10
248.567
 20
520.012
 10
271.427
 20
520.012
  0
LWPOLYLINE
  5
377
 100
AcDbEntity
  8
P
 100
AcDbPolyline
 90
     2
 43
0.000
 10
271.427
 20
528.003
 10
271.427
 20
520.012
  0
LWPOLYLINE
  5
378
 100
AcDbEntity
  8
P
 100
AcDbPolyline
 90
     2
 43
0.000
 10
271.427
 20
528.003
 10
294.287
 20
528.003
  0
LWPOLYLINE
  5
379
 100
AcDbEntity
  8
P
 100
AcDbPolyline
 90
     2
 43
0.000
 10
294.287
 20
528.003
 10
294.287
 20
520.012
  0
LWPOLYLINE
  5
380
 100
AcDbEntity
  8
P
 100
AcDbPolyline
 90
     2
 43
0.000
 10
294.287
 20
520.012
 10
317.130
 20
520.012
  0
LWPOLYLINE
  5
381
 100
AcDbEntity
  8
P
 100
AcDbPolyline
 90
     2
 43
0.000
 10
317.130
 20
528.003
 10
317.130
 20
520.012
  0
LWPOLYLINE
  5
382
 100
AcDbEntity
  8
P
 100
AcDbPolyline
 90
     2
 43
0.000
 10
317.130
 20
528.003
 10
331.982
 20
528.003
  0
LWPOLYLINE
  5
383
 100
AcDbEntity
  8
P
 100
AcDbPolyline
 90
     2
 43
0.000
 10
187.995
 20
672.006
 10
202.847
 20
672.006
  0
LWPOLYLINE
  5
384
 100
AcDbEntity
  8
P
 100
AcDbPolyline
 90
     2
 43
0.000
 10
202.847
 20
680.014
 10
202.847
 20
672.006
  0
LWPOLYLINE
  5
385
 100
AcDbEntity
  8
P
 100
AcDbPolyline
 90
     2
 43
0.000
 10
202.847
 20
680.014
 10
225.707
 20
680.014
  0
LWPOLYLINE
  5
386
 100
AcDbEntity
  8
P
 100
AcDbPolyline
 90
     2
 43
0.000
 10
225.707
 20
680.014
 10
225.707
 20
672.006
  0
LWPOLYLINE
  5
387
 100
AcDbEntity
  8
P
 100
AcDbPolyline
 90
     2
 43
0.000
 10
225.707
 20
672.006
 10
248.567
 20
672.006
  0
LWPOLYLINE
  5
388
 100
AcDbEntity
  8
P
 100
AcDbPolyline
 90
     2
 43
0.000
 10
248.567
 20
680.014
 10
248.567
 20
672.006
  0
LWPOLYLINE
  5
389
 100
AcDbEntity
  8
P
 100
AcDbPolyline
 90
     2
 43
0.000
 10
248.567
 20
680.014
 10
271.427
 20
680.014
  0
LWPOLYLINE
  5
390
 100
AcDbEntity
  8
P
 100
AcDbPolyline
 90
     2
 43
0.000
 10
271.427
 20
680.014
 10
271.427
 20
672.006
  0
LWPOLYLINE
  5
391
 100
AcDbEntity
  8
P
 100
AcDbPolyline
 90
     2
 43
0.000
 10
271.427
 20
672.006
 10
294.287
 20
672.006
  0
LWPOLYLINE
  5
392
 100
AcDbEntity
  8
P
 100
AcDbPolyline
 90
     2
 43
0.000
 10
294.287
 20
680.014
 10
294.287
 20
672.006
  0
LWPOLYLINE
  5
393
 100
AcDbEntity
  8
P
 100
AcDbPolyline
 90
     2
 43
0.000
 10
294.287
 20
680.014
 10
317.130
 20
680.014
  0
LWPOLYLINE
  5
394
 100
AcDbEntity
  8
P
 100
AcDbPolyline
 90
     2
 43
0.000
 10
317.130
 20
680.014
 10
317.130
 20
672.006
  0
LWPOLYLINE
  5
395
 100
AcDbEntity
  8
P
 100
AcDbPolyline
 90
     2
 43
0.000
 10
317.130
 20
672.006
 10
331.982
 20
672.006
  0
LWPOLYLINE
  5
396
 100
AcDbEntity
  8
P
 100
AcDbPolyline
 90
     2
 43
0.000
 10
187.995
 20
528.003
 10
187.995
 20
542.872
  0
LWPOLYLINE
  5
397
 100
AcDbEntity
  8
P
 100
AcDbPolyline
 90
     2
 43
0.000
 10
187.995
 20
542.872
 10
179.987
 20
542.872
  0
LWPOLYLINE
  5
398
 100
AcDbEntity
  8
P
 100
AcDbPolyline
 90
     2
 43
0.000
 10
179.987
 20
542.872
 10
179.987
 20
565.714
  0
LWPOLYLINE
  5
399
 100
AcDbEntity
  8
P
 100
AcDbPolyline
 90
     2
 43
0.000
 10
187.995
 20
565.714
 10
179.987
 20
565.714
  0
LWPOLYLINE
  5
400
 100
AcDbEntity
  8
P
 100
AcDbPolyline
 90
     2
 43
0.000
 10
187.995
 20
565.714
 10
187.995
 20
588.574
  0
LWPOLYLINE
  5
401
 100
AcDbEntity
  8
P
 100
AcDbPolyline
 90
     2
 43
0.000
 10
187.995
 20
588.574
 10
179.987
 20
588.574
  0
LWPOLYLINE
  5
402
 100
AcDbEntity
  8
P
 100
AcDbPolyline
 90
     2
 43
0.000
 10
179.987
 20
588.574
 10
179.987
 20
611.434
  0
LWPOLYLINE
  5
403
 100
AcDbEntity
  8
P
 100
AcDbPolyline
 90
     2
 43
0.000
 10
187.995
 20
611.434
 10
179.987
 20
611.434
  0
LWPOLYLINE
  5
404
 100
AcDbEntity
  8
P
 100
AcDbPolyline
 90
     2
 43
0.000
 10
187.995
 20
611.434
 10
187.995
 20
634.294
  0
LWPOLYLINE
  5
405
 100
AcDbEntity
  8
P
 100
AcDbPolyline
 90
     2
 43
0.000
 10
187.995
 20
634.294
 10
179.987
 20
634.294
  0
LWPOLYLINE
  5
406
 100
AcDbEntity
  8
P
 100
AcDbPolyline
 90
     2
 43
0.000
 10
179.987
 20
634.294
 10
179.987
 20
657.154
  0
LWPOLYLINE
  5
407
 100
AcDbEntity
  8
P
 100
AcDbPolyline
 90
     2
 43
0.000
 10
187.995
 20
657.154
 10
179.987
 20
657.154
  0
LWPOLYLINE
  5
408
 100
AcDbEntity
  8
P
 100
AcDbPolyline
 90
     2
 43
0.000
 10
187.995
 20
657.154
 10
187.995
 20
672.006
  0
LWPOLYLINE
  5
409
 100
AcDbEntity
  8
P
 100
AcDbPolyline
 90
     2
 43
0.000
 10
331.982
 20
528.003
 10
331.982
 20
542.872
  0
LWPOLYLINE
  5
410
 100
AcDbEntity
  8
P
 100
AcDbPolyline
 90
     2
 43
0.000
 10
339.990
 20
542.872
 10
331.982
 20
542.872
  0
LWPOLYLINE
  5
411
 100
AcDbEntity
  8
P
 100
AcDbPolyline
 90
     2
 43
0.000
 10
339.990
 20
542.872
 10
339.990
 20
565.714
  0
LWPOLYLINE
  5
412
 100
AcDbEntity
  8
P
 100
AcDbPolyline
 90
     2
 43
0.000
 10
339.990
 20
565.714
 10
331.982
 20
565.714
  0
LWPOLYLINE
  5
413
 100
AcDbEntity
  8
P
 100
AcDbPolyline
 90
     2
 43
0.000
 10
331.982
 20
565.714
 10
331.982
 20
588.574
  0
LWPOLYLINE
  5
414
 100
AcDbEntity
  8
P
 100
AcDbPolyline
 90
     2
 43
0.000
 10
339.990
 20
588.574
 10
331.982
 20
588.574
  0
LWPOLYLINE
  5
415
 100
AcDbEntity
  8
P
 100
AcDbPolyline
 90
     2
 43
0.000
 10
339.990
 20
588.574
 10
339.990
 20
611.434
  0
LWPOLYLINE
  5
416
 100
AcDbEntity
  8
P
 100
AcDbPolyline
 90
     2
 43
0.000
 10
339.990
 20
611.434
 10
331.982
 20
611.434
  0
LWPOLYLINE
  5
417
 100
AcDbEntity
  8
P
 100
AcDbPolyline
 90
     2
 43
0.000
 10
331.982
 20
611.434
 10
331.982
 20
634.294
  0
LWPOLYLINE
  5
418
 100
AcDbEntity
  8
P
 100
AcDbPolyline
 90
     2
 43
0.000
 10
339.990
 20
634.294
 10
331.982
 20
634.294
  0
LWPOLYLINE
  5
419
 100
AcDbEntity
  8
P
 100
AcDbPolyline
 90
     2
 43
0.000
 10
339.990
 20
634.294
 10
339.990
 20
657.154
  0
LWPOLYLINE
  5
420
 100
AcDbEntity
  8
P
 100
AcDbPolyline
 90
     2
 43
0.000
 10
339.990
 20
657.154
 10
331.982
 20
657.154
  0
LWPOLYLINE
  5
421
 100
AcDbEntity
  8
P
 100
AcDbPolyline
 90
     2
 43
0.000
 10
331.982
 20
657.154
 10
331.982
 20
672.006
  0
ENDSEC
  0
SECTION
  2
OBJECTS
  0
DICTIONARY
  5
C
330
0
100
AcDbDictionary
281
     1
  3
ACAD_2007HEADERVARS_RT
350
AA
  3
ACAD_COLOR
350
6B
  3
ACAD_GROUP
350
D
  3
ACAD_LAYOUT
350
6A
  3
ACAD_MLEADERSTYLE
350
6E
  3
ACAD_MLINESTYLE
350
67
  3
ACAD_PLOTSETTINGS
350
69
  3
ACAD_PLOTSTYLENAME
350
E
  3
ACAD_SCALELIST
350
3A
  3
ACAD_TABLESTYLE
350
6C
  3
ACAD_VISUALSTYLE
350
29
  3
ACDB_RECOMPOSE_DATA
350
8D
  3
AcDbVariableDictionary
350
81
  3
DWGPROPS
350
A9
  0
DICTIONARY
  5
7F
330
5C
100
AcDbDictionary
280
     1
281
     1
  3
ADSK_XREC_LAYER_RECONCILED
360
80
  0
DICTIONARY
  5
AA
102
{ACAD_REACTORS
330
C
102
}
330
C
100
AcDbDictionary
281
     1
  3
DIMJOGANG
350
AB
  0
DICTIONARY
  5
6B
102
{ACAD_REACTORS
330
C
102
}
330
C
100
AcDbDictionary
281
     1
  0
DICTIONARY
  5
D
102
{ACAD_REACTORS
330
C
102
}
330
C
100
AcDbDictionary
281
     1
  0
DICTIONARY
  5
6A
102
{ACAD_REACTORS
330
C
102
}
330
C
100
AcDbDictionary
281
     1
  3
Layout1
350
74
  3
Layout2
350
7C
  3
Model
350
78
  0
DICTIONARY
  5
10
102
{ACAD_REACTORS
330
C
102
}
330
C
100
AcDbDictionary
281
     1
  3
ByBlock
350
19
  3
ByLayer
350
11
  3
Global
350
21
  0
DICTIONARY
  5
6E
102
{ACAD_REACTORS
330
C
102
}
330
C
100
AcDbDictionary
281
     1
  3
Standard
350
6F
  0
DICTIONARY
  5
67
102
{ACAD_REACTORS
330
C
102
}
330
C
100
AcDbDictionary
281
     1
  3
Standard
350
68
  0
DICTIONARY
  5
69
102
{ACAD_REACTORS
330
C
102
}
330
C
100
AcDbDictionary
281
     1
  0
DICTIONARY
  5
6C
102
{ACAD_REACTORS
330
C
102
}
330
C
100
AcDbDictionary
281
     1
  3
Standard
350
6D
  0
DICTIONARY
  5
29
102
{ACAD_REACTORS
330
C
102
}
330
C
100
AcDbDictionary
281
     1
  3
2dWireframe
350
2F
  3
3D Hidden
350
31
  3
3dWireframe
350
30
  3
Basic
350
2E
  0
XRECORD
  5
8D
102
{ACAD_REACTORS
330
C
102
}
330
C
100
AcDbXrecord
280
     1
 90
        1
330
6D
  0
DICTIONARY
  5
81
102
{ACAD_REACTORS
330
C
102
}
330
C
100
AcDbDictionary
281
     1
  3
CANNOSCALE
350
85
  0
XRECORD
  5
80
102
{ACAD_REACTORS
330
7F
102
}
330
7F
100
AcDbXrecord
280
     1
290
     1
  0
XRECORD
  5
AB
102
{ACAD_REACTORS
330
AA
102
}
330
AA
100
AcDbXrecord
280
     1
 40
1.570796326794896
  0
LAYOUT
  5
74
102
{ACAD_XDICTIONARY
360
AD
102
}
102
{ACAD_REACTORS
330
6A
102
}
330
6A
100
AcDbPlotSettings
  1

  2
PDF995
  4

  6

 40
0.0
 41
0.0
 42
0.0
 43
0.0
 44
0.0
 45
0.0
 46
0.0
 47
0.0
 48
0.0
 49
0.0
140
0.0
141
0.0
142
1.0
143
1.0
 70
   688
 72
     0
 73
     0
 74
     5
  7

 75
    16
147
1.0
148
0.0
149
0.0
100
AcDbLayout
  1
Layout1
 70
     1
 71
     1
 10
0.0
 20
0.0
 11
420.0
 21
297.0
 12
0.0
 22
0.0
 32
0.0
 14
1.000000000000000E+20
 24
1.000000000000000E+20
 34
1.000000000000000E+20
 15
-1.000000000000000E+20
 25
-1.000000000000000E+20
 35
-1.000000000000000E+20
146
0.0
 13
0.0
 23
0.0
 33
0.0
 16
1.0
 26
0.0
 36
0.0
 17
0.0
 27
1.0
 37
0.0
 76
     0
330
71
  0
LAYOUT
  5
7C
102
{ACAD_XDICTIONARY
360
B1
102
}
102
{ACAD_REACTORS
330
6A
102
}
330
6A
100
AcDbPlotSettings
  1

  2
PDF995
  4

  6

 40
0.0
 41
0.0
 42
0.0
 43
0.0
 44
0.0
 45
0.0
 46
0.0
 47
0.0
 48
0.0
 49
0.0
140
0.0
141
0.0
142
1.0
143
1.0
 70
   688
 72
     0
 73
     0
 74
     5
  7

 75
    16
147
1.0
148
0.0
149
0.0
100
AcDbLayout
  1
Layout2
 70
     1
 71
     2
 10
0.0
 20
0.0
 11
12.0
 21
9.0
 12
0.0
 22
0.0
 32
0.0
 14
0.0
 24
0.0
 34
0.0
 15
0.0
 25
0.0
 35
0.0
146
0.0
 13
0.0
 23
0.0
 33
0.0
 16
1.0
 26
0.0
 36
0.0
 17
0.0
 27
1.0
 37
0.0
 76
     0
330
79
  0
LAYOUT
  5
78
102
{ACAD_XDICTIONARY
360
AF
102
}
102
{ACAD_REACTORS
330
6A
102
}
330
6A
100
AcDbPlotSettings
  1

  2
PDF995
  4

  6

 40
0.0
 41
0.0
 42
0.0
 43
0.0
 44
0.0
 45
0.0
 46
0.0
 47
0.0
 48
0.0
 49
0.0
140
0.0
141
0.0
142
1.0
143
1.0
 70
  1712
 72
     0
 73
     0
 74
     0
  7

 75
     0
147
1.0
148
0.0
149
0.0
100
AcDbLayout
  1
Model
 70
     1
 71
     0
 10
0.0
 20
0.0
 11
12.0
 21
9.0
 12
0.0
 22
0.0
 32
0.0
 14
0.0
 24
0.0
 34
0.0
 15
0.0
 25
0.0
 35
0.0
146
0.0
 13
0.0
 23
0.0
 33
0.0
 16
1.0
 26
0.0
 36
0.0
 17
0.0
 27
1.0
 37
0.0
 76
     0
330
75
331
5F
  0
ENDSEC
  0
EOF
